# xmcd
#
# Track frame offsets: 
#        150
#        14530
#        27673
#        41050
#        56701
#        71223
#        85589
#        99340
#        112136
#        125488
#        139273
#        151872
#        165351
#        178807
#        193285
#        207104
#        219816
#        233856
#        245281
#        258299
#        272655
#        286587
#
# Disc length: 3998 seconds
#
# Revision: 0
# Processed by: cddbd v1.5.2PL0 Copyright (c) Steve Scherf et al.
# Submitted via: ExactAudioCopy v0.95b4
#
DISCID=3c0f9c16
DTITLE=Leroy Carr and Scrapper Blackwell -  How Long Has That Evening Tr
DTITLE=ain Been Gone  (C)
DYEAR=2008
DGENRE=Pre-War Blues
TTITLE0=Let's Make Up and Be Friends Again 
TTITLE1=Let's Disagree 
TTITLE2=Sloppy Drunk Blues 
TTITLE3=Hard Times Done Drove Me to Drink
TTITLE4=Long Road Blues 
TTITLE5=Jail Cell Blues
TTITLE6=Four Day Rider
TTITLE7=Alabama Women Blues 
TTITLE8=Papa's on the House Top 
TTITLE9=Carried Water for the Elephant
TTITLE10=Low Down Dog Blues 
TTITLE11=Nineteen Thirty One Blues
TTITLE12=Love Crying Blues 
TTITLE13=Papa's Got Your Water On 
TTITLE14=Big House Blues 
TTITLE15=How Long, How Long Blues Part 2 
TTITLE16=What More Can I Do 
TTITLE17=Papa Wants To Knock A Jug 
TTITLE18=How Long Has That Evening Train Been Gone 
TTITLE19=Quittin' Papa 
TTITLE20=Lonesome Nights 
TTITLE21=I Keep the Blues 
EXTD=
EXTT0=
EXTT1=
EXTT2=
EXTT3=
EXTT4=
EXTT5=
EXTT6=
EXTT7=
EXTT8=
EXTT9=
EXTT10=
EXTT11=
EXTT12=
EXTT13=
EXTT14=
EXTT15=
EXTT16=
EXTT17=
EXTT18=
EXTT19=
EXTT20=
EXTT21=
PLAYORDER=
